<svg width="396" height="135.19467155723743" viewBox="0 0 370 126.31825372772184" class="looka-1j8o68f"><defs id="SvgjsDefs1486"><linearGradient id="SvgjsLinearGradient1491"><stop id="SvgjsStop1492" stop-color="#ee2a7b" offset="0"></stop><stop id="SvgjsStop1493" stop-color="#ff7db8" offset="1"></stop></linearGradient></defs><g id="SvgjsG1487" featurekey="odWo6G-0" transform="matrix(2.6316035159389077,0,0,2.6316035159389077,-13.158190748489742,-0.0009637219907002836)" fill="url(#SvgjsLinearGradient1491)"><g xmlns="http://www.w3.org/2000/svg" transform="translate(0,-1004.3622)"><path style="color:;font-style:normal;font-variant:normal;font-weight:normal;font-stretch:normal;font-size:medium;line-height:normal;font-family:sans-serif;text-indent:0;text-align:start;text-decoration:none;text-decoration-line:none;text-decoration-style:solid;text-decoration-color:;letter-spacing:normal;word-spacing:normal;text-transform:none;direction:ltr;block-progression:tb;writing-mode:lr-tb;baseline-shift:baseline;text-anchor:start;white-space:normal;clip-rule:nonzero;display:inline;overflow:visible;visibility:visible;opacity:1;isolation:auto;mix-blend-mode:normal;color-interpolation:sRGB;color-interpolation-filters:linearRGB;solid-color:;solid-opacity:1;fill:url(#SvgjsLinearGradient1491);fill-opacity:1;fill-rule:nonzero;stroke:none;stroke-width:1.99999988;stroke-linecap:round;stroke-linejoin:round;stroke-miterlimit:4;stroke-dasharray:none;stroke-dashoffset:0;stroke-opacity:1;color-rendering:auto;image-rendering:auto;shape-rendering:auto;text-rendering:auto;enable-background:accumulate" d="m 19.990749,1015.3627 c -3.03721,2e-4 -5.599163,2.3095 -5.599403,5.2352 -9.4e-5,0.4018 0.143318,0.7831 0.240225,1.1721 -1.528806,0.948 -2.630021,2.4382 -2.632715,4.2253 0.0013,0.9055 0.317743,1.7578 0.785127,2.5336 -0.465972,0.774 -0.782937,1.6261 -0.785127,2.5296 0.0024,1.7492 1.059749,3.222 2.538968,4.1784 -0.05503,0.2961 -0.146616,0.5869 -0.146478,0.8888 1.65e-4,2.9256 2.562143,5.2329 5.599403,5.2331 1.421978,0 2.693948,-0.6154 3.726424,-1.5177 1.031702,0.9016 2.303551,1.5157 3.724471,1.5177 3.037259,-2e-4 5.599238,-2.3075 5.599403,-5.2331 -3.42e-4,-0.1665 -0.05307,-0.3269 -0.07031,-0.4923 1.791503,-0.8844 3.024649,-2.5929 3.027232,-4.573 -0.002,-0.9045 -0.320223,-1.7568 -0.78708,-2.5316 0.467303,-0.7748 0.784829,-1.627 0.78708,-2.5316 -6.26e-4,-2.0121 -1.269856,-3.7379 -3.101448,-4.6101 0.0444,-0.2635 0.143586,-0.5174 0.144526,-0.7853 -2.4e-4,-2.9257 -2.562195,-5.235 -5.599403,-5.2352 -1.421959,0 -2.693936,0.6177 -3.726424,1.52 -1.031758,-0.9019 -2.303404,-1.5179 -3.724471,-1.52 z m -0.002,2.0003 0.002,0 c 1.181042,0 2.276728,0.5324 2.937391,1.3773 a 1.0000629,1.0002494 0 0 0 1.57416,0 c 0.66108,-0.8454 1.757557,-1.3756 2.939344,-1.3773 2.041432,2e-4 3.598169,1.4822 3.599477,3.233 -0.0014,0.3443 -0.06477,0.6871 -0.187493,1.0158 a 1.0000629,1.0002494 0 0 0 0.656226,1.3107 c 1.521728,0.4452 2.486877,1.6976 2.488189,3.0728 -0.0017,0.6795 -0.240408,1.3423 -0.697241,1.9025 a 1.0000629,1.0002494 0 0 0 0,1.264 c 0.456573,0.5599 0.695282,1.2234 0.697241,1.9025 -0.0026,1.3475 -0.92933,2.5806 -2.408114,3.0474 a 1.0000629,1.0002494 0 0 0 -0.662085,1.2268 c 0.07429,0.2605 0.112728,0.5291 0.113277,0.797 -0.0024,1.7494 -1.557822,3.2297 -3.597524,3.2308 -1.181814,0 -2.278331,-0.5298 -2.939344,-1.3751 a 1.0000629,1.0002494 0 0 0 -1.57416,0 c -0.661061,0.8454 -1.757541,1.3735 -2.939344,1.3751 -2.042232,-10e-5 -3.599378,-1.483 -3.599477,-3.2347 -1.45e-4,-0.3177 0.05103,-0.632 0.154291,-0.9377 a 1.0000629,1.0002494 0 0 0 -0.540996,-1.2345 c -1.25637,-0.5585 -2.002578,-1.685 -2.005785,-2.8931 l 0,0 c 0.0021,-0.6784 0.23949,-1.3411 0.695286,-1.9005 a 1.0000629,1.0002494 0 0 0 0,-1.264 c -0.456427,-0.5603 -0.693858,-1.2233 -0.695286,-1.9026 -1e-6,-6e-4 10e-7,0 0,0 0.0035,-1.238 0.787153,-2.3885 2.09172,-2.9301 a 1.0000629,1.0002494 0 0 0 0.537089,-1.3148 c -0.15719,-0.3701 -0.236411,-0.7598 -0.236319,-1.1525 1.44e-4,-1.751 1.556327,-3.2337 3.597523,-3.2349 z"></path><path style="color:;font-style:normal;font-variant:normal;font-weight:normal;font-stretch:normal;font-size:medium;line-height:normal;font-family:sans-serif;text-indent:0;text-align:start;text-decoration:none;text-decoration-line:none;text-decoration-style:solid;text-decoration-color:;letter-spacing:normal;word-spacing:normal;text-transform:none;direction:ltr;block-progression:tb;writing-mode:lr-tb;baseline-shift:baseline;text-anchor:start;white-space:normal;clip-rule:nonzero;display:inline;overflow:visible;visibility:visible;opacity:1;isolation:auto;mix-blend-mode:normal;color-interpolation:sRGB;color-interpolation-filters:linearRGB;solid-color:;solid-opacity:1;fill:url(#SvgjsLinearGradient1491);fill-opacity:1;fill-rule:evenodd;stroke:none;stroke-width:1.99999988;stroke-linecap:round;stroke-linejoin:round;stroke-miterlimit:4;stroke-dasharray:none;stroke-dashoffset:0;stroke-opacity:1;color-rendering:auto;image-rendering:auto;shape-rendering:auto;text-rendering:auto;enable-background:accumulate" d="m 24.029661,1022.3659 a 1.0000629,1.0002494 0 0 0 -0.97262,0.6778 l -1.999926,5.614 a 1.0000629,1.0002494 0 0 0 1.27339,1.2795 l 2.042894,-0.7168 -1.320264,3.8051 a 1.0003006,1.0004871 0 1 0 1.890554,0.6545 l 1.999926,-5.7607 a 1.0000629,1.0002494 0 0 0 -1.277295,-1.2736 l -2.023363,0.7111 1.296827,-3.6432 a 1.0000629,1.0002494 0 0 0 -0.910123,-1.3477 z"></path><path style="color:;font-style:normal;font-variant:normal;font-weight:normal;font-stretch:normal;font-size:medium;line-height:normal;font-family:sans-serif;text-indent:0;text-align:start;text-decoration:none;text-decoration-line:none;text-decoration-style:solid;text-decoration-color:;letter-spacing:normal;word-spacing:normal;text-transform:none;direction:ltr;block-progression:tb;writing-mode:lr-tb;baseline-shift:baseline;text-anchor:start;white-space:normal;clip-rule:nonzero;display:inline;overflow:visible;visibility:visible;opacity:1;isolation:auto;mix-blend-mode:normal;color-interpolation:sRGB;color-interpolation-filters:linearRGB;solid-color:;solid-opacity:1;fill:url(#SvgjsLinearGradient1491);fill-opacity:1;fill-rule:evenodd;stroke:none;stroke-width:2;stroke-linecap:round;stroke-linejoin:round;stroke-miterlimit:4;stroke-dasharray:none;stroke-dashoffset:0;stroke-opacity:1;color-rendering:auto;image-rendering:auto;shape-rendering:auto;text-rendering:auto;enable-background:accumulate" d="m 24.03552,1004.3631 a 1.000063,1.0002495 0 0 0 -1.005822,0.7657 l -0.999963,3.9264 a 1.000063,1.0002495 0 0 0 1.408151,1.1447 l 0.07227,-0.035 -0.482404,1.9436 a 1.0001917,1.0003782 0 1 0 1.941334,0.4825 l 0.999963,-4.03 a 1.000063,1.0002495 0 0 0 -1.412056,-1.1387 l -0.05469,0.027 0.464827,-1.8265 a 1.000063,1.0002495 0 0 0 -0.931607,-1.2599 z"></path><path style="color:;font-style:normal;font-variant:normal;font-weight:normal;font-stretch:normal;font-size:medium;line-height:normal;font-family:sans-serif;text-indent:0;text-align:start;text-decoration:none;text-decoration-line:none;text-decoration-style:solid;text-decoration-color:;letter-spacing:normal;word-spacing:normal;text-transform:none;direction:ltr;block-progression:tb;writing-mode:lr-tb;baseline-shift:baseline;text-anchor:start;white-space:normal;clip-rule:nonzero;display:inline;overflow:visible;visibility:visible;opacity:1;isolation:auto;mix-blend-mode:normal;color-interpolation:sRGB;color-interpolation-filters:linearRGB;solid-color:;solid-opacity:1;fill:url(#SvgjsLinearGradient1491);fill-opacity:1;fill-rule:evenodd;stroke:none;stroke-width:1.99999976;stroke-linecap:round;stroke-linejoin:round;stroke-miterlimit:4;stroke-dasharray:none;stroke-dashoffset:0;stroke-opacity:1;color-rendering:auto;image-rendering:auto;shape-rendering:auto;text-rendering:auto;enable-background:accumulate" d="m 5.9775947,1009.3639 a 1.0000629,1.0002494 0 0 0 -0.5019345,1.8517 l 1.6757193,1.0608 a 1.0000629,1.0002494 0 0 0 -0.1445259,1.7718 l 3.4490904,2.1566 a 1.0006809,1.0008674 0 1 0 1.060508,-1.6976 l -1.5839253,-0.9904 a 1.0000629,1.0002494 0 0 0 0.1367133,-1.762 l -3.5233069,-2.2288 a 1.0000629,1.0002494 0 0 0 -0.5683384,-0.1621 z"></path><path style="color:;font-style:normal;font-variant:normal;font-weight:normal;font-stretch:normal;font-size:medium;line-height:normal;font-family:sans-serif;text-indent:0;text-align:start;text-decoration:none;text-decoration-line:none;text-decoration-style:solid;text-decoration-color:;letter-spacing:normal;word-spacing:normal;text-transform:none;direction:ltr;block-progression:tb;writing-mode:lr-tb;baseline-shift:baseline;text-anchor:start;white-space:normal;clip-rule:nonzero;display:inline;overflow:visible;visibility:visible;opacity:1;isolation:auto;mix-blend-mode:normal;color-interpolation:sRGB;color-interpolation-filters:linearRGB;solid-color:;solid-opacity:1;fill:url(#SvgjsLinearGradient1491);fill-opacity:1;fill-rule:evenodd;stroke:none;stroke-width:1.99999988;stroke-linecap:round;stroke-linejoin:round;stroke-miterlimit:4;stroke-dasharray:none;stroke-dashoffset:0;stroke-opacity:1;color-rendering:auto;image-rendering:auto;shape-rendering:auto;text-rendering:auto;enable-background:accumulate" d="m 10.991081,1040.3666 a 1.0000629,1.0002494 0 0 0 -0.539043,0.1641 l -3.5233065,2.2287 a 1.0000629,1.0002494 0 0 0 0.1367136,1.7621 l -1.5839257,0.9903 a 1.0006384,1.000825 0 1 0 1.0605077,1.6975 l 3.4490911,-2.1565 a 1.0000629,1.0002494 0 0 0 -0.1445259,-1.7718 l 1.6757197,-1.0607 a 1.0000629,1.0002494 0 0 0 -0.531231,-1.8537 z"></path><path style="color:;font-style:normal;font-variant:normal;font-weight:normal;font-stretch:normal;font-size:medium;line-height:normal;font-family:sans-serif;text-indent:0;text-align:start;text-decoration:none;text-decoration-line:none;text-decoration-style:solid;text-decoration-color:;letter-spacing:normal;word-spacing:normal;text-transform:none;direction:ltr;block-progression:tb;writing-mode:lr-tb;baseline-shift:baseline;text-anchor:start;white-space:normal;clip-rule:nonzero;display:inline;overflow:visible;visibility:visible;opacity:1;isolation:auto;mix-blend-mode:normal;color-interpolation:sRGB;color-interpolation-filters:linearRGB;solid-color:;solid-opacity:1;fill:url(#SvgjsLinearGradient1491);fill-opacity:1;fill-rule:evenodd;stroke:none;stroke-width:2;stroke-linecap:round;stroke-linejoin:round;stroke-miterlimit:4;stroke-dasharray:none;stroke-dashoffset:0;stroke-opacity:1;color-rendering:auto;image-rendering:auto;shape-rendering:auto;text-rendering:auto;enable-background:accumulate" d="m 24.03552,1043.3689 a 1.000063,1.0002495 0 0 0 -1.005822,0.7658 l -0.999963,3.9263 a 1.000063,1.0002495 0 0 0 1.408151,1.1447 l 0.07227,-0.035 -0.482404,1.9437 a 1.0001839,1.0003704 0 1 0 1.941334,0.4823 l 0.999963,-4.0298 a 1.000063,1.0002495 0 0 0 -1.412056,-1.1387 l -0.05469,0.027 0.464827,-1.8264 a 1.000063,1.0002495 0 0 0 -0.931607,-1.2601 z"></path><path style="color:;font-style:normal;font-variant:normal;font-weight:normal;font-stretch:normal;font-size:medium;line-height:normal;font-family:sans-serif;text-indent:0;text-align:start;text-decoration:none;text-decoration-line:none;text-decoration-style:solid;text-decoration-color:;letter-spacing:normal;word-spacing:normal;text-transform:none;direction:ltr;block-progression:tb;writing-mode:lr-tb;baseline-shift:baseline;text-anchor:start;white-space:normal;clip-rule:nonzero;display:inline;overflow:visible;visibility:visible;opacity:1;isolation:auto;mix-blend-mode:normal;color-interpolation:sRGB;color-interpolation-filters:linearRGB;solid-color:;solid-opacity:1;fill:url(#SvgjsLinearGradient1491);fill-opacity:1;fill-rule:evenodd;stroke:none;stroke-width:1.99999976;stroke-linecap:round;stroke-linejoin:round;stroke-miterlimit:4;stroke-dasharray:none;stroke-dashoffset:0;stroke-opacity:1;color-rendering:auto;image-rendering:auto;shape-rendering:auto;text-rendering:auto;enable-background:accumulate" d="m 41.989935,1009.3619 a 1.0000629,1.0002494 0 0 0 -0.539043,0.1641 l -3.523307,2.2288 a 1.0000629,1.0002494 0 0 0 0.136713,1.762 l -1.583925,0.9904 a 1.0006809,1.0008674 0 1 0 1.060508,1.6976 l 3.449091,-2.1566 a 1.0000629,1.0002494 0 0 0 -0.144527,-1.7718 l 1.67572,-1.0608 a 1.0000629,1.0002494 0 0 0 -0.53123,-1.8537 z"></path><path style="color:;font-style:normal;font-variant:normal;font-weight:normal;font-stretch:normal;font-size:medium;line-height:normal;font-family:sans-serif;text-indent:0;text-align:start;text-decoration:none;text-decoration-line:none;text-decoration-style:solid;text-decoration-color:;letter-spacing:normal;word-spacing:normal;text-transform:none;direction:ltr;block-progression:tb;writing-mode:lr-tb;baseline-shift:baseline;text-anchor:start;white-space:normal;clip-rule:nonzero;display:inline;overflow:visible;visibility:visible;opacity:1;isolation:auto;mix-blend-mode:normal;color-interpolation:sRGB;color-interpolation-filters:linearRGB;solid-color:;solid-opacity:1;fill:url(#SvgjsLinearGradient1491);fill-opacity:1;fill-rule:evenodd;stroke:none;stroke-width:1.99999988;stroke-linecap:round;stroke-linejoin:round;stroke-miterlimit:4;stroke-dasharray:none;stroke-dashoffset:0;stroke-opacity:1;color-rendering:auto;image-rendering:auto;shape-rendering:auto;text-rendering:auto;enable-background:accumulate" d="m 36.976448,1040.3686 a 1.0000629,1.0002494 0 0 0 -0.501935,1.8517 l 1.67572,1.0607 a 1.0000629,1.0002494 0 0 0 -0.144527,1.7718 l 3.449092,2.1565 a 1.0006384,1.000825 0 0 0 1.060508,-1.6975 l -1.583926,-0.9903 a 1.0000629,1.0002494 0 0 0 0.136713,-1.7621 l -3.523307,-2.2287 a 1.0000629,1.0002494 0 0 0 -0.568338,-0.1621 z"></path></g></g><g id="SvgjsG1488" featurekey="VGK2BT-0" transform="matrix(5.293939837979721,0,0,5.293939837979721,117.04195634981572,-22.189319620163694)" fill="#ffffff"><path d="M6.5763 20.20339 c1.8981 0.23729 3.3225 0.71186 3.2547 2.5932 c-0.050847 1.9831 -1.8983 3.2034 -4.8475 3.2034 c-2.339 0 -4 -0.98305 -3.9661 -2.7966 c0.016949 -1 0.64407 -1.6949 1.8305 -1.9322 c-1.1017 -0.18644 -2.2542 -0.83051 -2.2881 -1.9151 c-0.033898 -0.98305 0.76271 -1.678 2.0847 -1.4914 c-0.59322 -0.30525 -1.322 -1.3222 -1.339 -2.4578 c-0.050847 -2.2034 1.6271 -3.8812 3.7797 -3.8812 c1.339 0 1.7288 0.28797 3.8644 0.22017 c0.15254 0 0.27119 0.084746 0.27119 0.25407 l-0.067797 0.86475 c-0.16949 0.15238 -0.69492 0.16933 -1.0678 0.20322 c0.76271 0.69492 0.91525 1.5424 0.91525 2.3559 c0 2.2203 -1.7292 3.678 -3.7631 3.6102 c-0.81356 -0.033898 -1.3898 -0.25407 -1.7629 -0.38966 c-0.6778 -0.16949 -1.1356 0.033898 -1.1186 0.45763 c0.033898 0.42373 0.61017 0.6439 1.5254 0.76271 c1.1525 0.15221 2.0169 0.2539 2.6949 0.33864 z M5.1702 13.2712 c-1.1525 0 -2.0678 0.88136 -2.0678 2.0508 c0 1.0508 0.9322 1.9661 2.0508 1.9661 c1.2542 0.016949 2.0339 -0.86441 2.0507 -1.9661 c-0.016784 -1.1695 -0.89814 -2.0508 -2.0337 -2.0508 z M5.1702 24.3049 c1.4237 0 2.661 -0.45746 2.6949 -1.4236 c0.016949 -0.52542 -0.35593 -0.81356 -1.2373 -0.98305 c-0.64407 -0.11881 -1.4915 -0.23746 -2.4068 -0.33915 c-0.66102 -0.084746 -1.339 0.45763 -1.3559 1.2881 c-0.033898 1.1017 1 1.4576 2.3051 1.4576 z M12.474386440677968 8.492 c-0.55915 0 -1.0168 -0.44068 -1.0168 -1.0169 c0 -0.55932 0.45763 -1.0169 1.0168 -1.0169 c0.55932 0 1.0169 0.45763 1.0169 1.0169 c0 0.57627 -0.45763 1.0169 -1.0169 1.0169 z M13.135386440677967 11.6102 l-1.3051 0 c-0.16949 0 -0.27119 0.11881 -0.27119 0.27119 l0 7.4407 c0 0.38983 0.23729 0.6778 0.64407 0.6778 l0.94915 0 c0.15254 0 0.25424 -0.10153 0.25424 -0.28797 l0 -7.8305 c0 -0.15238 -0.11864 -0.27119 -0.27119 -0.27119 z M21.135622033898308 20.20339 c1.8981 0.23729 3.3225 0.71186 3.2547 2.5932 c-0.050847 1.9831 -1.8983 3.2034 -4.8475 3.2034 c-2.339 0 -4 -0.98305 -3.9661 -2.7966 c0.016949 -1 0.64407 -1.6949 1.8305 -1.9322 c-1.1017 -0.18644 -2.2542 -0.83051 -2.2881 -1.9151 c-0.033898 -0.98305 0.76271 -1.678 2.0847 -1.4914 c-0.59322 -0.30525 -1.322 -1.3222 -1.339 -2.4578 c-0.050847 -2.2034 1.6271 -3.8812 3.7797 -3.8812 c1.339 0 1.7288 0.28797 3.8644 0.22017 c0.15254 0 0.27119 0.084746 0.27119 0.25407 l-0.067797 0.86475 c-0.16949 0.15238 -0.69492 0.16933 -1.0678 0.20322 c0.76271 0.69492 0.91525 1.5424 0.91525 2.3559 c0 2.2203 -1.7292 3.678 -3.7631 3.6102 c-0.81356 -0.033898 -1.3898 -0.25407 -1.7629 -0.38966 c-0.6778 -0.16949 -1.1356 0.033898 -1.1186 0.45763 c0.033898 0.42373 0.61017 0.6439 1.5254 0.76271 c1.1525 0.15221 2.0169 0.2539 2.6949 0.33864 z M19.729522033898306 13.2712 c-1.1525 0 -2.0678 0.88136 -2.0678 2.0508 c0 1.0508 0.9322 1.9661 2.0508 1.9661 c1.2542 0.016949 2.0339 -0.86441 2.0507 -1.9661 c-0.016784 -1.1695 -0.89814 -2.0508 -2.0337 -2.0508 z M19.729522033898306 24.3049 c1.4237 0 2.661 -0.45746 2.6949 -1.4236 c0.016949 -0.52542 -0.35593 -0.81356 -1.2373 -0.98305 c-0.64407 -0.11881 -1.4915 -0.23746 -2.4068 -0.33915 c-0.66102 -0.084746 -1.339 0.45763 -1.3559 1.2881 c-0.033898 1.1017 1 1.4576 2.3051 1.4576 z M25.74559338983051 18.7798 l0.5761 -0.91508 c0.11864 -0.18661 0.22034 -0.23746 0.38983 -0.15271 c0.016949 0.033898 1.0508 0.64407 2.1864 0.64407 c0.98305 0 1.322 -0.38983 1.322 -0.77966 c0 -0.57627 -0.62712 -0.77949 -1.7627 -1.0676 c-1.6102 -0.42373 -2.678 -1.2542 -2.678 -2.5424 c0 -1.2712 1.0847 -2.4576 3.1186 -2.4576 c1.2373 0 2.0847 0.42373 2.7627 0.81356 c0.16949 0.10169 0.25424 0.25424 0.15254 0.38983 l-0.62712 0.9661 c-0.084746 0.13559 -0.22034 0.18644 -0.37288 0.13559 c-0.44068 -0.22017 -1.1525 -0.54237 -1.9153 -0.54237 c-0.94915 0 -1.2034 0.47458 -1.2034 0.76271 c0 0.49153 0.71186 0.72881 1.5763 0.96593 c1.5086 0.40678 3.0171 1.1356 3.0171 2.6102 c0 1.4237 -1.3558 2.5083 -3.3898 2.5083 c-1.3898 0 -2.6441 -0.6778 -3.0678 -1.0168 c-0.11864 -0.067797 -0.15254 -0.23729 -0.084746 -0.32203 z M38.89811186440678 19.4578 c0.050847 0.13559 -0.050681 0.22 -0.16933 0.30475 c-0.28814 0.18644 -0.91525 0.32203 -1.5424 0.32203 c-1.8136 0 -2.4746 -0.9322 -2.4746 -3.1186 l0 -3.5763 l-1 0 c-0.15254 0 -0.27119 -0.10169 -0.27119 -0.27119 l0 -0.28814 c0 -0.13559 0.033898 -0.23712 0.13559 -0.33898 c0.98305 -0.79661 1.7627 -1.6269 2.4407 -3.339 c0.050847 -0.11864 0.10169 -0.18644 0.18644 -0.18644 l0.18644 0 c0.13559 0 0.18644 0.067797 0.18644 0.22034 l0 2.4237 l1.7797 0 c0.15254 0 0.28814 0.11881 0.28814 0.28831 l0 1.2203 c0 0.15254 -0.13559 0.27119 -0.28814 0.27119 l-1.4746 0 c-0.13559 0 -0.25424 -0.016949 -0.32203 -0.050847 l0 3.4576 c0 0.98305 0.11864 1.5424 0.94915 1.5424 c0.35593 0 0.59322 -0.050847 0.79661 -0.10169 s0.33898 0.033898 0.37288 0.22051 z M47.77947288135593 19.62712 c-0.22034 -1.661 -0.2368 -3.2032 -0.16916 -4.8302 c0.084746 -2 -1.0169 -3.2881 -3.0847 -3.2881 c-1.3559 0 -2.7627 0.40678 -3.5932 0.86441 c-0.15254 0.084746 -0.25424 0.23712 -0.18644 0.38966 l0.42373 0.98305 c0.067797 0.16949 0.18644 0.22034 0.40678 0.11864 c1.0847 -0.49153 1.9661 -0.72881 2.8305 -0.72881 c0.91525 0 1.4576 0.35593 1.4237 1.322 c-3.1356 0.5422 -5.5254 1.1015 -5.5254 3.3049 c0 1.4746 1.0678 2.3219 2.7966 2.3219 c1.4408 0 2.1864 -0.44051 2.8983 -0.98288 c0.08458 0.50847 0.23712 0.89831 0.5761 0.89831 l1.0169 0 c0.15238 0 0.20322 -0.18644 0.18627 -0.37288 z M43.42387288135593 18.627299999999998 c-0.69492 0 -1.2373 -0.23729 -1.2373 -0.88136 c0 -1.0339 1.8981 -1.3729 3.6102 -1.7288 c-0.016949 0.55932 -0.016949 1.3051 0 1.7966 c-0.55932 0.42373 -1.5085 0.81356 -2.3729 0.81356 z"></path></g></svg>